<svg width="60" height="139" viewBox="0 0 60 139" fill="none" xmlns="http://www.w3.org/2000/svg">
<g clip-path="url(#clip0_946_63)">
<path d="M29.976 4.4187C22.7242 4.4187 15.9066 7.24209 10.7791 12.3697C0.194743 22.954 0.194743 40.176 10.7791 50.7637L29.976 69.5365L49.2002 50.7365C59.7574 40.1794 59.754 22.954 49.173 12.3697C44.0421 7.24209 37.2246 4.4187 29.976 4.4187Z" fill="#26A48E"/>
<path d="M29.9756 3.22534C37.304 3.22534 44.2159 5.99338 49.5088 11.031L50.0166 11.5261L50.5264 12.0496C61.0596 23.136 60.8954 40.7281 50.0439 51.5798L50.0342 51.5896L30.8105 70.3894L29.9756 71.2048L29.1416 70.3894L9.94531 51.6169L9.93555 51.6072C-1.11441 40.5537 -1.11474 22.5764 9.93555 11.5261L10.4424 11.031C15.7323 5.99311 22.6441 3.22546 29.9756 3.22534Z" stroke="white" stroke-opacity="0.8" stroke-width="2.38605"/>
<g filter="url(#filter0_d_946_63)">
<path fill-rule="evenodd" clip-rule="evenodd" d="M18.8669 23.2656C18.8669 21.1397 20.5903 19.4163 22.7162 19.4163H37.2218C39.3477 19.4163 41.0711 21.1397 41.0711 23.2656V38.7424C41.0711 39.4588 40.8754 40.1294 40.5345 40.7039V42.4038C40.5345 43.6417 39.531 44.6452 38.2932 44.6452H37.6863C36.5117 44.6452 35.5481 43.7417 35.4527 42.5917H24.3839C24.2885 43.7418 23.3249 44.6454 22.1502 44.6454H21.5434C20.3055 44.6454 19.302 43.6419 19.302 42.404V40.5219C19.024 39.9897 18.8669 39.3844 18.8669 38.7424V23.2656ZM24.9482 25.5122C23.2528 25.5122 21.8785 26.8866 21.8785 28.5819V31.5519C21.8785 32.603 22.4068 33.5308 23.2123 34.0841V33.1487C23.2123 32.5407 23.7052 32.0478 24.3132 32.0478H26.2185C26.8265 32.0478 27.3194 32.5407 27.3194 33.1487V34.6216H35.0182C36.7135 34.6216 38.0879 33.2473 38.0879 31.5519V28.5819C38.0879 26.8866 36.7135 25.5122 35.0182 25.5122H24.9482ZM18.4284 25.5112C17.8181 25.5112 17.3232 26.006 17.3232 26.6164V30.5347C17.3232 31.1451 17.8181 31.6399 18.4284 31.6399V25.5112ZM41.4035 31.64C42.0139 31.64 42.5087 31.1452 42.5087 30.5348V26.6164C42.5087 26.006 42.0139 25.5112 41.4035 25.5112V31.64Z" fill="white"/>
</g>
</g>
<defs>
<filter id="filter0_d_946_63" x="11.9932" y="14.0862" width="35.8457" height="35.8893" filterUnits="userSpaceOnUse" color-interpolation-filters="sRGB">
<feFlood flood-opacity="0" result="BackgroundImageFix"/>
<feColorMatrix in="SourceAlpha" type="matrix" values="0 0 0 0 0 0 0 0 0 0 0 0 0 0 0 0 0 0 127 0" result="hardAlpha"/>
<feOffset/>
<feGaussianBlur stdDeviation="2.66504"/>
<feComposite in2="hardAlpha" operator="out"/>
<feColorMatrix type="matrix" values="0 0 0 0 0 0 0 0 0 0 0 0 0 0 0 0 0 0 0.25 0"/>
<feBlend mode="normal" in2="BackgroundImageFix" result="effect1_dropShadow_946_63"/>
<feBlend mode="normal" in="SourceGraphic" in2="effect1_dropShadow_946_63" result="shape"/>
</filter>
<clipPath id="clip0_946_63">
<rect width="59.9692" height="138.876" fill="white"/>
</clipPath>
</defs>
</svg>
